# xmcd CD database file generated by Grip 3.2.0
# 
# Track frame offsets:
#       150
#       20502
#       35402
#       45133
#       60257
#       80331
#       94644
#       110670
#       121788
#       142344
#       152963
#       167547
#       179549
#       189026
#       199769
#       214669
#       255405
#       278111
#       298377
#       316824
# 
# Disc length: 4533 seconds
# 
# Revision: 1
# Processed by: cddbd v1.5.2PL0 Copyright (c) Steve Scherf et al.
# Submitted via: Grip 3.2.0
# 
DISCID=1111b314
DTITLE=Champion Jack Dupree - The Complete Blue Horizon Sessions [CD2]
DYEAR=2005
DGENRE=Blues
TTITLE0=I Want To Be A Hippy
TTITLE1=Grandma (You're A Bit Too Slow)
TTITLE2=Puff Puff
TTITLE3=Blues Before Sunshine
TTITLE4=I'll Try
TTITLE5=Going Back To Louisiana
TTITLE6=Ain't That A Shame
TTITLE7=Stumbling Block
TTITLE8=Old And Grey
TTITLE9=Who Threw The Whiskey In The Well
TTITLE10=Postman Blues
TTITLE11=Lawdy, Lawdy
TTITLE12=Kansas City
TTITLE13=Ba' La Fouche
TTITLE14=Rub A Little Boogie
TTITLE15=Black And White Blues
TTITLE16=Drinkin' Wine Spo-Dee-O-Dee
TTITLE17=The Sheik Of Araby
TTITLE18=You Make Me Feel Alright
TTITLE19=Do The Boogie Woogie
EXTD=
EXTT0=
EXTT1=
EXTT2=
EXTT3=
EXTT4=
EXTT5=
EXTT6=
EXTT7=
EXTT8=
EXTT9=
EXTT10=
EXTT11=
EXTT12=
EXTT13=
EXTT14=
EXTT15=
EXTT16=
EXTT17=
EXTT18=
EXTT19=
PLAYORDER=
